<svg width="26" height="18" viewBox="0 0 26 18" fill="none" xmlns="http://www.w3.org/2000/svg">
<path d="M11.0367 16.3688L0.545455 4.37688C-0.69267 2.96594 0.31358 0.750001 2.19264 0.750001H23.1751C23.5957 0.74964 24.0074 0.870505 24.361 1.09812C24.7146 1.32574 24.9951 1.65046 25.1689 2.03339C25.3427 2.41633 25.4025 2.84125 25.341 3.25726C25.2795 3.67328 25.0995 4.06276 24.8223 4.37906L14.3311 16.3666C14.1258 16.6015 13.8725 16.7898 13.5884 16.9189C13.3043 17.0479 12.9959 17.1146 12.6839 17.1146C12.3719 17.1146 12.0634 17.0479 11.7793 16.9189C11.4952 16.7898 11.242 16.6015 11.0367 16.3666V16.3688Z" fill="#FEFFFF"/>
</svg>
