<svg width="51" height="45" viewBox="0 0 51 45" fill="none" xmlns="http://www.w3.org/2000/svg">
<circle cx="22.5" cy="22.5" r="22" stroke="#606060"/>
<circle cx="43" cy="8" r="8" fill="#00A859"/>
<path d="M45.2354 7.3479V8.83032C45.2354 9.47095 45.1748 10.0217 45.0537 10.4827C44.9326 10.9436 44.7627 11.3225 44.5439 11.6194C44.3252 11.9124 44.0654 12.1292 43.7646 12.2698C43.4639 12.4104 43.1318 12.4807 42.7686 12.4807C42.4795 12.4807 42.208 12.4358 41.9541 12.3459C41.7002 12.2561 41.4697 12.1194 41.2627 11.9358C41.0596 11.7483 40.8838 11.512 40.7354 11.2268C40.5908 10.9377 40.4795 10.5959 40.4014 10.2014C40.3232 9.80298 40.2842 9.34595 40.2842 8.83032V7.3479C40.2842 6.70728 40.3447 6.15845 40.4658 5.70142C40.5908 5.24048 40.7627 4.86353 40.9814 4.57056C41.2002 4.27759 41.46 4.06274 41.7607 3.92603C42.0654 3.7854 42.3994 3.71509 42.7627 3.71509C43.0479 3.71509 43.3174 3.76001 43.5713 3.84985C43.8291 3.93579 44.0576 4.07056 44.2568 4.25415C44.46 4.43774 44.6338 4.67407 44.7783 4.96313C44.9268 5.24829 45.04 5.59009 45.1182 5.98853C45.1963 6.38306 45.2354 6.83618 45.2354 7.3479ZM43.5889 9.05884V7.10767C43.5889 6.80688 43.5752 6.54321 43.5479 6.31665C43.5244 6.09009 43.4912 5.89868 43.4482 5.74243C43.4053 5.58618 43.3486 5.45923 43.2783 5.36157C43.208 5.26392 43.1299 5.1936 43.0439 5.15063C42.958 5.10376 42.8623 5.08032 42.7568 5.08032C42.6318 5.08032 42.5186 5.11548 42.417 5.18579C42.3154 5.2561 42.2275 5.37134 42.1533 5.53149C42.0791 5.68774 42.0225 5.89673 41.9834 6.15845C41.9482 6.41626 41.9307 6.73267 41.9307 7.10767V9.05884C41.9307 9.35962 41.9424 9.62524 41.9658 9.85571C41.9932 10.0862 42.0303 10.2834 42.0771 10.4475C42.1279 10.6077 42.1846 10.7366 42.2471 10.8342C42.3135 10.9319 42.3896 11.0042 42.4756 11.051C42.5654 11.094 42.6631 11.1155 42.7686 11.1155C42.8936 11.1155 43.0068 11.0803 43.1084 11.01C43.2139 10.9358 43.3018 10.8186 43.3721 10.6584C43.4424 10.4983 43.4951 10.2874 43.5303 10.0256C43.5693 9.76001 43.5889 9.43774 43.5889 9.05884Z" fill="#FEFFFF"/>
<g clip-path="url(#clip0_1_1079)">
<path d="M18.1084 33.6667C19.1439 33.6667 19.9834 32.8273 19.9834 31.7917C19.9834 30.7562 19.1439 29.9167 18.1084 29.9167C17.0729 29.9167 16.2334 30.7562 16.2334 31.7917C16.2334 32.8273 17.0729 33.6667 18.1084 33.6667Z" fill="#292929"/>
<path d="M29.5 33.6667C30.5355 33.6667 31.375 32.8273 31.375 31.7917C31.375 30.7562 30.5355 29.9167 29.5 29.9167C28.4645 29.9167 27.625 30.7562 27.625 31.7917C27.625 32.8273 28.4645 33.6667 29.5 33.6667Z" fill="#292929"/>
<path d="M34.5671 11.4751C34.4895 11.3795 34.3918 11.3022 34.2808 11.2489C34.1699 11.1956 34.0485 11.1676 33.9254 11.1667H16.5754L17.1171 12.8334H32.8337L30.6087 22.8334H18.1087L14.3004 10.7751C14.2592 10.6471 14.1877 10.531 14.0919 10.4367C13.9961 10.3424 13.879 10.2726 13.7504 10.2334L10.3337 9.1834C10.2287 9.15112 10.1183 9.13985 10.0089 9.15022C9.89946 9.1606 9.79316 9.19243 9.69604 9.24389C9.49991 9.34781 9.3531 9.5254 9.2879 9.73757C9.2227 9.94974 9.24445 10.1791 9.34838 10.3753C9.45231 10.5714 9.62989 10.7182 9.84206 10.7834L12.8337 11.7001L16.6587 23.7834L15.2921 24.9001L15.1837 25.0084C14.8457 25.398 14.6541 25.8932 14.6419 26.4089C14.6297 26.9246 14.7978 27.4283 15.1171 27.8334C15.3442 28.1096 15.6328 28.3288 15.9598 28.4735C16.2869 28.6183 16.6432 28.6844 17.0004 28.6667H30.9087C31.1297 28.6667 31.3417 28.5789 31.498 28.4227C31.6543 28.2664 31.7421 28.0544 31.7421 27.8334C31.7421 27.6124 31.6543 27.4004 31.498 27.2441C31.3417 27.0879 31.1297 27.0001 30.9087 27.0001H16.8671C16.7711 26.9968 16.6776 26.9688 16.5956 26.9189C16.5136 26.8689 16.4459 26.7986 16.399 26.7149C16.3521 26.6311 16.3275 26.5366 16.3278 26.4406C16.328 26.3446 16.353 26.2503 16.4004 26.1667L18.4087 24.5001H31.2754C31.468 24.5048 31.6563 24.4426 31.8083 24.3241C31.9602 24.2056 32.0664 24.0381 32.1087 23.8501L34.7504 12.1834C34.7757 12.0592 34.7724 11.9308 34.7406 11.808C34.7089 11.6853 34.6495 11.5714 34.5671 11.4751Z" fill="#292929"/>
</g>
<defs>
<clipPath id="clip0_1_1079">
<rect width="30" height="30" fill="white" transform="translate(7 7)"/>
</clipPath>
</defs>
</svg>
