<svg width="38" height="39" viewBox="0 0 38 39" fill="none" xmlns="http://www.w3.org/2000/svg">
<path d="M29.6225 12.7969C29.3993 15.8948 27.1012 18.2812 24.5952 18.2812C22.0891 18.2812 19.7872 15.8955 19.5678 12.7969C19.3393 9.57404 21.5765 7.3125 24.5952 7.3125C27.6138 7.3125 29.851 9.6327 29.6225 12.7969Z" stroke="#00A859" stroke-width="2.4375" stroke-linecap="round" stroke-linejoin="round"/>
<path d="M24.5934 23.1562C19.6293 23.1562 14.8556 25.6219 13.6597 30.4238C13.5013 31.0591 13.8997 31.6875 14.5525 31.6875H34.6352C35.288 31.6875 35.6841 31.0591 35.5279 30.4238C34.332 25.545 29.5583 23.1562 24.5934 23.1562Z" stroke="#00A859" stroke-width="2.4375" stroke-miterlimit="10"/>
<path d="M14.2343 14.1634C14.0561 16.6375 12.199 18.5859 10.1972 18.5859C8.1954 18.5859 6.33529 16.6382 6.16009 14.1634C5.97804 11.5896 7.7856 9.75 10.1972 9.75C12.6088 9.75 14.4164 11.6368 14.2343 14.1634Z" stroke="#00A859" stroke-width="2.4375" stroke-linecap="round" stroke-linejoin="round"/>
<path d="M14.6922 23.3084C13.3172 22.6785 11.803 22.4363 10.198 22.4363C6.23707 22.4363 2.42086 24.4053 1.46491 28.2406C1.33922 28.7479 1.65762 29.2499 2.17864 29.2499H10.7312" stroke="#00A859" stroke-width="2.4375" stroke-miterlimit="10" stroke-linecap="round"/>
</svg>
