<svg width="76" height="73" viewBox="0 0 76 73" fill="none" xmlns="http://www.w3.org/2000/svg">
<path d="M66.3863 4.74188C67.6439 4.74188 68.85 5.24146 69.7393 6.13074C70.6286 7.02001 71.1281 8.22613 71.1281 9.48375V47.4188C71.1281 48.6764 70.6286 49.8825 69.7393 50.7718C68.85 51.661 67.6439 52.1606 66.3863 52.1606H54.5316C53.0593 52.1606 51.6072 52.5034 50.2903 53.1619C48.9734 53.8203 47.828 54.7763 46.9446 55.9541L37.935 67.9653L28.9254 55.9541C28.0421 54.7763 26.8966 53.8203 25.5797 53.1619C24.2628 52.5034 22.8107 52.1606 21.3384 52.1606H9.48375C8.22613 52.1606 7.02001 51.661 6.13074 50.7718C5.24147 49.8825 4.74188 48.6764 4.74188 47.4188V9.48375C4.74188 8.22613 5.24147 7.02001 6.13074 6.13074C7.02001 5.24146 8.22613 4.74188 9.48375 4.74188H66.3863ZM9.48375 0C6.9685 0 4.55628 0.999178 2.77773 2.77773C0.999178 4.55627 0 6.9685 0 9.48375L0 47.4188C0 49.934 0.999178 52.3462 2.77773 54.1248C4.55628 55.9033 6.9685 56.9025 9.48375 56.9025H21.3384C22.0746 56.9025 22.8006 57.0739 23.4591 57.4031C24.1175 57.7323 24.6903 58.2103 25.1319 58.7993L34.1415 70.8104C34.5832 71.3994 35.1559 71.8773 35.8144 72.2066C36.4728 72.5358 37.1989 72.7072 37.935 72.7072C38.6712 72.7072 39.3972 72.5358 40.0556 72.2066C40.7141 71.8773 41.2868 71.3994 41.7285 70.8104L50.7381 58.7993C51.1798 58.2103 51.7525 57.7323 52.4109 57.4031C53.0694 57.0739 53.7954 56.9025 54.5316 56.9025H66.3863C68.9015 56.9025 71.3137 55.9033 73.0923 54.1248C74.8708 52.3462 75.87 49.934 75.87 47.4188V9.48375C75.87 6.9685 74.8708 4.55627 73.0923 2.77773C71.3137 0.999178 68.9015 0 66.3863 0L9.48375 0Z" fill="#00A859"/>
<path d="M33.5065 22.5712C32.5828 21.1328 31.2172 20.033 29.6149 19.4371C28.0126 18.8413 26.2602 18.7816 24.6211 19.267C22.9819 19.7524 21.5447 20.7568 20.5252 22.129C19.5058 23.5013 18.9593 25.1674 18.9679 26.8768C18.9687 28.2925 19.3497 29.6819 20.071 30.8999C20.7924 32.118 21.8275 33.12 23.0685 33.8012C24.3094 34.4825 25.7104 34.818 27.1253 34.7728C28.5402 34.7275 29.917 34.3031 31.1118 33.5439C30.4906 35.3885 29.3336 37.3564 27.4274 39.329C27.0627 39.7063 26.8628 40.213 26.8717 40.7377C26.8806 41.2624 27.0975 41.762 27.4748 42.1267C27.8521 42.4914 28.3588 42.6913 28.8835 42.6824C29.4081 42.6735 29.9078 42.4566 30.2725 42.0793C37.3189 34.7768 36.4038 26.8389 33.5065 22.5807V22.5712ZM52.474 22.5712C51.5503 21.1328 50.1847 20.033 48.5824 19.4371C46.9801 18.8413 45.2277 18.7816 43.5886 19.267C41.9494 19.7524 40.5122 20.7568 39.4927 22.129C38.4733 23.5013 37.9268 25.1674 37.9354 26.8768C37.9362 28.2925 38.3172 29.6819 39.0385 30.8999C39.7599 32.118 40.795 33.12 42.036 33.8012C43.2769 34.4825 44.6779 34.818 46.0928 34.7728C47.5077 34.7275 48.8845 34.3031 50.0793 33.5439C49.4581 35.3885 48.3011 37.3564 46.3949 39.329C46.0302 39.7063 45.8303 40.213 45.8392 40.7377C45.8481 41.2624 46.065 41.762 46.4423 42.1267C46.8196 42.4914 47.3263 42.6913 47.851 42.6824C48.3757 42.6735 48.8753 42.4566 49.24 42.0793C56.2864 34.7768 55.3713 26.8389 52.474 22.5807V22.5712Z" fill="#00A859"/>
</svg>
