<svg width="47" height="46" viewBox="0 0 47 46" fill="none" xmlns="http://www.w3.org/2000/svg">
<path d="M23.5598 43.9999H29.9793C30.0687 41.0494 30.501 39.427 31.2772 39.1327C39.3729 36.0604 45.1196 28.2978 45.1196 19.2061H2C2 28.1006 7.50099 35.7241 15.3207 38.9268C16.1379 39.261 16.7491 40.9534 17.1522 43.9999H23.5598Z" stroke="#00A859" stroke-width="3.3169" stroke-linejoin="round"/>
<path d="M24.8689 19.2342C27.2597 14.314 29.6392 9.38831 32.0073 4.45713C33.1392 2.07477 35.4353 1.50128 37.5536 2.40679C39.6718 3.3123 40.5288 5.90164 39.6395 7.70727C39.0897 8.82191 37.2248 12.6563 34.0447 19.2105M13.2578 26.7769C13.6459 28.0565 14.159 29.114 14.7961 29.9484C15.4604 30.804 16.2362 31.5668 17.103 32.2165L13.2578 26.7769Z" stroke="#00A859" stroke-width="3.3169" stroke-linecap="round"/>
</svg>
