<svg width="60" height="45" viewBox="0 0 60 45" fill="none" xmlns="http://www.w3.org/2000/svg">
<path d="M3.26136 3.26136L3.96847 3.96847L3.26136 3.26136C2.74924 3.77348 2.46154 4.46806 2.46154 5.19231V12.1154C2.46154 14.6757 3.47864 17.1312 5.28908 18.9417C7.09953 20.7521 9.55503 21.7692 12.1154 21.7692C13.3831 21.7692 14.6385 21.5195 15.8098 21.0344C16.981 20.5492 18.0452 19.8381 18.9417 18.9417C19.8381 18.0452 20.5492 16.981 21.0344 15.8098C21.5195 14.6385 21.7692 13.3831 21.7692 12.1154V5.19231C21.7692 4.46806 21.4815 3.77348 20.9694 3.26136C20.4573 2.74924 19.7627 2.46154 19.0385 2.46154H17.3077C17.1139 2.46154 16.928 2.38455 16.791 2.2475C16.6539 2.11045 16.5769 1.92458 16.5769 1.73077C16.5769 1.53696 16.6539 1.35108 16.791 1.21404C16.928 1.07699 17.1139 1 17.3077 1H19.0385C20.1503 1 21.2167 1.44169 22.0029 2.2279L22.702 1.52874L22.0029 2.2279C22.7891 3.01411 23.2308 4.08044 23.2308 5.19231V12.1154V12.1162C23.2323 13.9069 22.7998 15.6712 21.9704 17.2582C21.141 18.8451 19.9393 20.2075 18.4683 21.2285L18.4219 21.2607L18.3795 21.2978C16.7244 22.7478 15.3807 24.5185 14.4298 26.5028C13.4788 28.4871 12.9404 30.6438 12.8471 32.8422L12.8462 32.8634V32.8846C12.8462 35.445 13.8633 37.9005 15.6737 39.7109C17.4841 41.5214 19.9396 42.5385 22.5 42.5385C25.0604 42.5385 27.5159 41.5214 29.3263 39.7109C31.1367 37.9005 32.1538 35.445 32.1538 32.8846V30.9115V30.1369L31.4038 29.9433C30.008 29.5829 28.7915 28.7258 27.9824 27.5326C27.1733 26.3394 26.8271 24.8921 27.0087 23.462C27.1904 22.0318 27.8874 20.717 28.9691 19.764C30.0508 18.811 31.443 18.2852 32.8846 18.2852C34.3263 18.2852 35.7184 18.811 36.8001 19.764C37.8818 20.717 38.5788 22.0318 38.7605 23.462C38.9421 24.8921 38.596 26.3394 37.7869 27.5326C36.9777 28.7258 35.7612 29.5829 34.3654 29.9433L33.6154 30.1369V30.9115V32.8846C33.6154 35.8326 32.4443 38.6598 30.3598 40.7444C28.2752 42.8289 25.448 44 22.5 44C19.552 44 16.7248 42.8289 14.6402 40.7444C12.5557 38.6598 11.3846 35.8326 11.3846 32.8846V32.8644L11.3838 32.8443C11.2951 30.6486 10.7624 28.4936 9.81791 26.5095C8.87338 24.5253 7.53659 22.7531 5.88824 21.2999L5.84344 21.2604L5.79426 21.2265C4.31736 20.209 3.10952 18.8482 2.27445 17.2611C1.43946 15.674 1.00213 13.9081 1 12.1148V5.19231C1 4.08044 1.44169 3.01411 2.2279 2.2279C3.01411 1.44169 4.08044 1 5.19231 1H6.92308C7.11689 1 7.30276 1.07699 7.43981 1.21404C7.57686 1.35108 7.65385 1.53696 7.65385 1.73077C7.65385 1.92458 7.57686 2.11045 7.43981 2.2475C7.30276 2.38455 7.11689 2.46154 6.92308 2.46154H5.19231C4.46806 2.46154 3.77348 2.74924 3.26136 3.26136ZM29.7298 27.3856C30.5665 28.2223 31.7013 28.6923 32.8846 28.6923C34.0679 28.6923 35.2027 28.2223 36.0394 27.3856C36.8761 26.5489 37.3462 25.414 37.3462 24.2308C37.3462 23.0475 36.8761 21.9127 36.0394 21.076C35.2027 20.2393 34.0679 19.7692 32.8846 19.7692C31.7013 19.7692 30.5665 20.2393 29.7298 21.076C28.8931 21.9127 28.4231 23.0475 28.4231 24.2308C28.4231 25.414 28.8931 26.5489 29.7298 27.3856Z" stroke="#00A859" stroke-width="2"/>
<path d="M56.2632 26H37.7368C36.7776 26 36 26.7749 36 27.7308V39.2692C36 40.2251 36.7776 41 37.7368 41H56.2632C57.2224 41 58 40.2251 58 39.2692V27.7308C58 26.7749 57.2224 26 56.2632 26Z" stroke="#00A859" stroke-width="2.5" stroke-linejoin="round"/>
<path d="M51.5985 20.392L52.1213 19.8543L51.5985 20.392C51.8277 20.6149 52.0009 20.8797 52.1108 21.1667H51.1162C51.0668 21.095 51.0103 21.0279 50.9471 20.9664C50.886 20.9071 50.82 20.8541 50.75 20.808V19.8739C51.0676 19.9821 51.3582 20.1584 51.5985 20.392ZM51.35 22.6667H52.25V25.25H51.35V22.6667ZM49.25 19.75V20.5833H44.75V19.75H49.25ZM42.8838 21.1667H41.8892C41.9991 20.8797 42.1723 20.6149 42.4015 20.392C42.6418 20.1584 42.9324 19.9821 43.25 19.8739V20.808C43.18 20.8541 43.114 20.9071 43.0529 20.9664C42.9898 21.0279 42.9332 21.095 42.8838 21.1667ZM42.65 22.6667V25.25H41.75V22.6667H42.65Z" stroke="#00A859" stroke-width="1.5"/>
<path d="M47 30V37M44 33.5H50H44Z" stroke="#00A859" stroke-width="2.5" stroke-linecap="round" stroke-linejoin="round"/>
</svg>
