<svg width="26" height="34" viewBox="0 0 26 34" fill="none" xmlns="http://www.w3.org/2000/svg">
<path d="M19.1189 16.6458L19.1035 16.6861C19.1083 16.6739 19.1122 16.6614 19.117 16.6493L19.1189 16.6458Z" fill="#00A859"/>
<path d="M12.9815 0.773926C7.63397 0.773926 3.24512 5.1485 3.24512 10.4843C3.24512 12.5522 3.90714 14.4792 5.0235 16.0577L4.98359 15.9954L11.2164 26.7689L11.2479 26.8101C11.499 27.1379 11.7476 27.402 12.0485 27.601C12.3493 27.7999 12.7345 27.9255 13.1129 27.8875C13.869 27.8116 14.3084 27.2891 14.7144 26.7387L14.7397 26.7046L21.6112 15.0108L21.6167 15.001C21.7812 14.7041 21.9003 14.4045 22.0022 14.1144C22.4735 12.9622 22.7161 11.7292 22.7165 10.4843C22.7165 5.1485 18.3289 0.773926 12.9815 0.773926ZM12.9815 2.39654C17.4449 2.39654 21.0939 6.03704 21.0939 10.4843C21.0942 11.5231 20.8913 12.5519 20.4968 13.5128L20.4887 13.5329L20.4815 13.554C20.3962 13.7996 20.3033 14.0226 20.1963 14.216L13.3946 25.7904C13.0937 26.1867 12.8835 26.2805 12.951 26.2733C12.9857 26.2701 13.0178 26.2973 12.9435 26.248C12.8724 26.201 12.7274 26.063 12.5554 25.8437L6.37027 15.1503L6.34853 15.1201C5.41618 13.8026 4.86773 12.2069 4.86773 10.4843C4.86773 6.03737 8.51797 2.39654 12.9815 2.39654ZM12.9815 4.94405C9.91082 4.94405 7.42725 7.41886 7.42725 10.4843C7.42725 13.5498 9.91114 16.0246 12.9815 16.0246C16.0518 16.0246 18.5344 13.5494 18.5344 10.4843C18.5344 7.41886 16.0518 4.94405 12.9815 4.94405ZM12.9815 6.56666C15.1937 6.56666 16.9118 8.28177 16.9118 10.4843C16.9118 12.6868 15.1941 14.4019 12.9815 14.4019C10.7689 14.4019 9.04986 12.6865 9.04986 10.4843C9.04986 8.28177 10.7692 6.56666 12.9815 6.56666Z" fill="#00A859"/>
<path d="M7.7905 23.1846C3.20629 23.8323 0 25.3819 0 27.663C0 30.7356 5.35723 33.2263 12.9809 33.2263C20.6046 33.2263 25.9618 30.7356 25.9618 27.663C25.9618 25.3819 22.7559 23.8323 18.172 23.1846L17.5369 24.2659C20.9918 24.7452 23.3657 25.7525 23.3657 26.9215C23.3657 28.5603 18.7162 29.8886 12.9809 29.8886C7.24563 29.8886 2.59618 28.5603 2.59618 26.9215C2.59586 25.7564 4.95417 24.7501 8.41975 24.2688C8.21043 23.9073 7.99982 23.5464 7.79018 23.1846H7.7905Z" fill="#00A859"/>
</svg>
