<svg width="37" height="37" viewBox="0 0 37 37" fill="none" xmlns="http://www.w3.org/2000/svg">
<circle cx="18.5" cy="18.5" r="18" stroke="#B8B8B8"/>
<path d="M12.9903 7.22684C12.7819 7.43121 12.6166 7.67397 12.5038 7.94122C12.3911 8.20846 12.333 8.49495 12.333 8.78428C12.333 9.0736 12.3911 9.36009 12.5038 9.62733C12.6166 9.89458 12.7819 10.1373 12.9903 10.3417L21.7109 18.9131L12.9903 27.4846C12.5701 27.8976 12.334 28.4578 12.334 29.042C12.334 29.6262 12.5701 30.1864 12.9903 30.5994C13.4105 31.0125 13.9805 31.2445 14.5748 31.2445C15.1692 31.2445 15.7391 31.0125 16.1594 30.5994L26.4757 20.4595C26.6841 20.2552 26.8494 20.0124 26.9622 19.7452C27.075 19.4779 27.133 19.1914 27.133 18.9021C27.133 18.6128 27.075 18.3263 26.9622 18.059C26.8494 17.7918 26.6841 17.549 26.4757 17.3447L16.1594 7.20475C15.3053 6.36528 13.8668 6.36528 12.9903 7.22684Z" fill="#B8B8B8"/>
</svg>
