<svg width="27" height="26" viewBox="0 0 27 26" fill="none" xmlns="http://www.w3.org/2000/svg">
<path d="M23.8857 26H23.7092C3.31098 24.87 0.414738 8.29 0.00988752 3.23C-0.0227339 2.83658 0.0255507 2.44082 0.151975 2.06541C0.278398 1.69 0.480476 1.3423 0.746631 1.04225C1.01278 0.7422 1.33778 0.495688 1.70301 0.316839C2.06823 0.137991 2.46649 0.0303218 2.87499 9.37591e-07H8.5948C9.01061 -0.000386826 9.41697 0.119511 9.76122 0.344163C10.1055 0.568815 10.3718 0.88787 10.5256 1.26L12.1035 5C12.2554 5.36355 12.2931 5.76208 12.2119 6.14609C12.1307 6.5301 11.9342 6.88267 11.6468 7.16L9.43565 9.31C9.78103 11.2007 10.721 12.9437 12.1283 14.303C13.5357 15.6622 15.3425 16.5723 17.3043 16.91L19.5569 14.76C19.8491 14.4862 20.2186 14.3013 20.6192 14.2283C21.0198 14.1554 21.4338 14.1977 21.8096 14.35L25.7231 15.86C26.1036 16.0129 26.4282 16.2714 26.6556 16.6027C26.883 16.9339 27.0029 17.3229 26.9999 17.72V23C26.9999 23.7956 26.6718 24.5587 26.0878 25.1213C25.5038 25.6839 24.7117 26 23.8857 26ZM3.12413 2C2.84881 2 2.58477 2.10536 2.39009 2.29289C2.19542 2.48043 2.08605 2.73478 2.08605 3V3.08C2.56356 9 5.6259 23 23.8234 24C23.9598 24.0081 24.0965 23.9902 24.2257 23.9473C24.3549 23.9045 24.474 23.8374 24.5762 23.7501C24.6784 23.6628 24.7618 23.5568 24.8214 23.4384C24.8811 23.32 24.9159 23.1914 24.9238 23.06V17.72L21.0102 16.21L18.0309 19.06L17.5327 19C8.50138 17.91 7.27644 9.21 7.27644 9.12L7.21416 8.64L10.1623 5.77L8.60518 2H3.12413Z" fill="#00A859"/>
</svg>
