<svg width="37" height="37" viewBox="0 0 37 37" fill="none" xmlns="http://www.w3.org/2000/svg">
<circle cx="18.5" cy="18.5" r="18" transform="matrix(-1 0 0 1 37 0)" stroke="#B8B8B8"/>
<path d="M24.0097 7.22684C24.2181 7.43121 24.3834 7.67397 24.4962 7.94122C24.6089 8.20846 24.667 8.49495 24.667 8.78428C24.667 9.0736 24.6089 9.36009 24.4962 9.62733C24.3834 9.89458 24.2181 10.1373 24.0097 10.3417L15.2891 18.9131L24.0097 27.4846C24.4299 27.8976 24.666 28.4578 24.666 29.042C24.666 29.6262 24.4299 30.1864 24.0097 30.5994C23.5895 31.0125 23.0195 31.2445 22.4252 31.2445C21.8308 31.2445 21.2609 31.0125 20.8406 30.5994L10.5243 20.4595C10.3159 20.2552 10.1506 20.0124 10.0378 19.7452C9.92505 19.4779 9.86699 19.1914 9.86699 18.9021C9.86699 18.6128 9.92505 18.3263 10.0378 18.059C10.1506 17.7918 10.3159 17.549 10.5243 17.3447L20.8406 7.20475C21.6947 6.36528 23.1332 6.36528 24.0097 7.22684Z" fill="#B8B8B8"/>
</svg>
