<svg width="75" height="46" viewBox="0 0 75 46" fill="none" xmlns="http://www.w3.org/2000/svg">
<path d="M41.18 36.92H9.94C9.514 36.92 9.088 36.636 8.804 36.352C8.52 36.068 8.52 35.5 8.662 35.074L11.36 28.258L8.662 2.84H0V0H9.94C10.65 0 11.218 0.567999 11.36 1.278L14.2 28.258C14.2 28.542 14.2 28.684 14.058 28.968L12.07 34.08H42.6L41.18 36.92Z" fill="#00A859"/>
<path d="M13.0638 29.8199L12.4958 26.9799L45.4398 20.1639V8.51993H11.3598V5.67993H46.8598C47.7118 5.67993 48.2798 6.24793 48.2798 7.09993V21.2999C48.2798 22.0099 47.8538 22.5779 47.1438 22.7199L13.0638 29.8199ZM42.5998 45.4399C39.4758 45.4399 36.9198 42.8839 36.9198 39.7599C36.9198 36.6359 39.4758 34.0799 42.5998 34.0799C45.7238 34.0799 48.2798 36.6359 48.2798 39.7599C48.2798 42.8839 45.7238 45.4399 42.5998 45.4399ZM42.5998 36.9199C41.0378 36.9199 39.7598 38.1979 39.7598 39.7599C39.7598 41.3219 41.0378 42.5999 42.5998 42.5999C44.1618 42.5999 45.4398 41.3219 45.4398 39.7599C45.4398 38.1979 44.1618 36.9199 42.5998 36.9199ZM8.51984 45.4399C5.39584 45.4399 2.83984 42.8839 2.83984 39.7599C2.83984 36.6359 5.39584 34.0799 8.51984 34.0799C11.6438 34.0799 14.1998 36.6359 14.1998 39.7599C14.1998 42.8839 11.6438 45.4399 8.51984 45.4399ZM8.51984 36.9199C6.95784 36.9199 5.67984 38.1979 5.67984 39.7599C5.67984 41.3219 6.95784 42.5999 8.51984 42.5999C10.0818 42.5999 11.3598 41.3219 11.3598 39.7599C11.3598 38.1979 10.0818 36.9199 8.51984 36.9199Z" fill="#00A859"/>
<path d="M57.25 42.656H62.0884C62.1559 40.4322 62.4817 39.2094 63.0667 38.9876C69.1686 36.6719 73.5 30.8211 73.5 23.9685H41C41 30.6724 45.1462 36.4184 51.0401 38.8324C51.6559 39.0843 52.1166 40.3599 52.4205 42.656H57.25Z" stroke="#00A859" stroke-width="2.5" stroke-linejoin="round"/>
<path d="M58.2368 23.9897C60.0388 20.2813 61.8323 16.5687 63.6172 12.852C64.4703 11.0564 66.2009 10.6241 67.7975 11.3066C69.394 11.9891 70.04 13.9407 69.3697 15.3017C68.9553 16.1418 67.5497 19.0319 65.1528 23.9719M49.4854 29.6748C49.7779 30.6392 50.1646 31.4363 50.6448 32.0652C51.1454 32.7101 51.7302 33.285 52.3835 33.7747L49.4854 29.6748Z" stroke="#00A859" stroke-width="2.5" stroke-linecap="round"/>
</svg>
