<svg width="38" height="30" viewBox="0 0 38 30" fill="none" xmlns="http://www.w3.org/2000/svg">
<path d="M2.67857 13.393H18.75V16.0715H2.67857V13.393ZM0 6.69653H13.3928V9.3751H0V6.69653Z" fill="#00A859"/>
<path d="M37.3917 14.2044L33.3739 4.82946C33.2708 4.58849 33.0992 4.38312 32.8803 4.23883C32.6615 4.09455 32.4052 4.01771 32.1431 4.01785H28.1252V1.33928C28.1252 0.984084 27.9841 0.643432 27.733 0.392267C27.4818 0.141103 27.1411 0 26.7859 0H5.3574V2.67857H25.4467V19.4946C24.8364 19.849 24.3023 20.3207 23.8752 20.8824C23.4481 21.4442 23.1365 22.085 22.9583 22.7678H14.5422C14.2162 21.5053 13.441 20.4051 12.3618 19.6733C11.2827 18.9415 9.97366 18.6284 8.68016 18.7927C7.38666 18.957 6.19749 19.5874 5.33554 20.5657C4.47359 21.5441 3.99805 22.8032 3.99805 24.1071C3.99805 25.411 4.47359 26.6701 5.33554 27.6485C6.19749 28.6268 7.38666 29.2572 8.68016 29.4215C9.97366 29.5858 11.2827 29.2727 12.3618 28.5409C13.441 27.8091 14.2162 26.7089 14.5422 25.4464H22.9583C23.2496 26.5958 23.9159 27.6153 24.8517 28.3435C25.7875 29.0717 26.9394 29.4671 28.1252 29.4671C29.311 29.4671 30.4629 29.0717 31.3987 28.3435C32.3345 27.6153 33.0008 26.5958 33.2922 25.4464H36.1609C36.5161 25.4464 36.8568 25.3053 37.1079 25.0541C37.3591 24.803 37.5002 24.4623 37.5002 24.1071V14.7321C37.5003 14.5507 37.4634 14.3711 37.3917 14.2044ZM9.37525 26.7857C8.84548 26.7857 8.3276 26.6286 7.88712 26.3343C7.44663 26.0399 7.10331 25.6216 6.90057 25.1322C6.69784 24.6427 6.6448 24.1041 6.74815 23.5845C6.8515 23.065 7.10661 22.5877 7.48121 22.2131C7.85582 21.8385 8.33309 21.5834 8.85269 21.48C9.37228 21.3767 9.91085 21.4297 10.4003 21.6324C10.8897 21.8352 11.3081 22.1785 11.6024 22.619C11.8967 23.0595 12.0538 23.5773 12.0538 24.1071C12.0531 24.8173 11.7707 25.4982 11.2685 26.0004C10.7663 26.5025 10.0854 26.785 9.37525 26.7857ZM28.1252 6.69642H31.2591L34.1306 13.3928H28.1252V6.69642ZM28.1252 26.7857C27.5954 26.7857 27.0776 26.6286 26.6371 26.3343C26.1966 26.0399 25.8533 25.6216 25.6505 25.1322C25.4478 24.6427 25.3948 24.1041 25.4981 23.5845C25.6015 23.065 25.8566 22.5877 26.2312 22.2131C26.6058 21.8385 27.0831 21.5834 27.6027 21.48C28.1222 21.3767 28.6608 21.4297 29.1503 21.6324C29.6397 21.8352 30.058 22.1785 30.3524 22.619C30.6467 23.0595 30.8038 23.5773 30.8038 24.1071C30.8031 24.8173 30.5206 25.4982 30.0185 26.0004C29.5163 26.5025 28.8354 26.785 28.1252 26.7857ZM34.8216 22.7678H33.2922C32.9972 21.6206 32.3298 20.6038 31.3947 19.8767C30.4597 19.1495 29.3097 18.7533 28.1252 18.75V16.0714H34.8216V22.7678Z" fill="#00A859"/>
</svg>
