<svg width="32" height="30" viewBox="0 0 32 30" fill="none" xmlns="http://www.w3.org/2000/svg">
<path d="M26.68 23.92H6.44001C6.16401 23.92 5.88801 23.736 5.70401 23.552C5.52001 23.368 5.52001 23 5.61201 22.724L7.36001 18.308L5.61201 1.84H0V0H6.44001C6.90001 0 7.26801 0.368 7.36001 0.828001L9.20002 18.308C9.20002 18.492 9.20002 18.584 9.10802 18.768L7.82001 22.08H27.6L26.68 23.92Z" fill="#00A859"/>
<path d="M8.46385 19.32L8.09585 17.48L29.4399 13.0639V5.51993H7.35985V3.67993H30.3599C30.9119 3.67993 31.2799 4.04793 31.2799 4.59993V13.7999C31.2799 14.26 31.0039 14.628 30.5439 14.72L8.46385 19.32ZM27.5999 29.44C25.5759 29.44 23.9199 27.784 23.9199 25.76C23.9199 23.736 25.5759 22.08 27.5999 22.08C29.6239 22.08 31.2799 23.736 31.2799 25.76C31.2799 27.784 29.6239 29.44 27.5999 29.44ZM27.5999 23.92C26.5879 23.92 25.7599 24.748 25.7599 25.76C25.7599 26.772 26.5879 27.6 27.5999 27.6C28.6119 27.6 29.4399 26.772 29.4399 25.76C29.4399 24.748 28.6119 23.92 27.5999 23.92ZM5.51985 29.44C3.49585 29.44 1.83984 27.784 1.83984 25.76C1.83984 23.736 3.49585 22.08 5.51985 22.08C7.54385 22.08 9.19986 23.736 9.19986 25.76C9.19986 27.784 7.54385 29.44 5.51985 29.44ZM5.51985 23.92C4.50785 23.92 3.67985 24.748 3.67985 25.76C3.67985 26.772 4.50785 27.6 5.51985 27.6C6.53185 27.6 7.35985 26.772 7.35985 25.76C7.35985 24.748 6.53185 23.92 5.51985 23.92Z" fill="#00A859"/>
</svg>
