<svg width="50" height="68" viewBox="0 0 50 68" fill="none" xmlns="http://www.w3.org/2000/svg">
<path d="M16.2814 3.96881C16.2814 3.44665 16.4888 2.94588 16.858 2.57665C17.2272 2.20743 17.728 2 18.2502 2H28.7505C29.009 2 29.2651 2.05092 29.5039 2.14987C29.7428 2.24881 29.9598 2.39383 30.1427 2.57665C30.3255 2.75947 30.4705 2.97651 30.5694 3.21538C30.6684 3.45425 30.7193 3.71026 30.7193 3.96881C30.7193 4.22736 30.6684 4.48338 30.5694 4.72224C30.4705 4.96111 30.3255 5.17815 30.1427 5.36097C29.9598 5.54379 29.7428 5.68881 29.5039 5.78776C29.2651 5.8867 29.009 5.93762 28.7505 5.93762H18.2502C17.728 5.93762 17.2272 5.7302 16.858 5.36097C16.4888 4.99175 16.2814 4.49097 16.2814 3.96881ZM16.347 10.6103C16.5314 10.3809 16.7649 10.1958 17.0304 10.0686C17.2958 9.9414 17.5864 9.87533 17.8807 9.87525H29.1187C29.4132 9.87513 29.704 9.94111 29.9697 10.0683C30.2354 10.1955 30.4691 10.3807 30.6537 10.6103L33.5662 14.2349C33.8472 14.5847 34.0002 15.02 34 15.4686V26.282C34 26.8042 33.7926 27.3049 33.4233 27.6742C33.0541 28.0434 32.5533 28.2508 32.0312 28.2508H14.9688C14.4467 28.2508 13.9459 28.0434 13.5767 27.6742C13.2074 27.3049 13 26.8042 13 26.282V15.4686C12.9998 15.02 13.1528 14.5847 13.4338 14.2349L16.3463 10.6109L16.347 10.6103Z" stroke="#00A859" stroke-width="2.16" stroke-linejoin="round"/>
<path d="M30.2814 3.96881C30.2814 3.44665 30.4888 2.94588 30.858 2.57665C31.2272 2.20743 31.728 2 32.2502 2H42.7505C43.009 2 43.2651 2.05092 43.5039 2.14987C43.7428 2.24881 43.9598 2.39383 44.1427 2.57665C44.3255 2.75947 44.4705 2.97651 44.5694 3.21538C44.6684 3.45425 44.7193 3.71026 44.7193 3.96881C44.7193 4.22736 44.6684 4.48338 44.5694 4.72224C44.4705 4.96111 44.3255 5.17815 44.1427 5.36097C43.9598 5.54379 43.7428 5.68881 43.5039 5.78776C43.2651 5.8867 43.009 5.93762 42.7505 5.93762H32.2502C31.728 5.93762 31.2272 5.7302 30.858 5.36097C30.4888 4.99175 30.2814 4.49097 30.2814 3.96881ZM30.347 10.6103C30.5314 10.3809 30.7649 10.1958 31.0304 10.0686C31.2958 9.9414 31.5864 9.87533 31.8807 9.87525H43.1187C43.4132 9.87513 43.704 9.94111 43.9697 10.0683C44.2354 10.1955 44.4691 10.3807 44.6537 10.6103L47.5662 14.2349C47.8472 14.5847 48.0002 15.02 48 15.4686V26.282C48 26.8042 47.7926 27.3049 47.4233 27.6742C47.0541 28.0434 46.5533 28.2508 46.0312 28.2508H28.9688C28.4467 28.2508 27.9459 28.0434 27.5767 27.6742C27.2074 27.3049 27 26.8042 27 26.282V15.4686C26.9998 15.02 27.1528 14.5847 27.4338 14.2349L30.3463 10.6109L30.347 10.6103Z" stroke="#00A859" stroke-width="2.16" stroke-linejoin="round"/>
<path d="M41.18 58.92H9.94C9.514 58.92 9.088 58.636 8.804 58.352C8.52 58.068 8.52 57.5 8.662 57.074L11.36 50.258L8.662 24.84H0V22H9.94C10.65 22 11.218 22.568 11.36 23.278L14.2 50.258C14.2 50.542 14.2 50.684 14.058 50.968L12.07 56.08H42.6L41.18 58.92Z" fill="#00A859"/>
<path d="M13.0638 51.8199L12.4958 48.9799L45.4398 42.1639V30.5199H11.3598V27.6799H46.8598C47.7118 27.6799 48.2798 28.2479 48.2798 29.0999V43.2999C48.2798 44.0099 47.8538 44.5779 47.1438 44.7199L13.0638 51.8199ZM42.5998 67.4399C39.4758 67.4399 36.9198 64.8839 36.9198 61.7599C36.9198 58.6359 39.4758 56.0799 42.5998 56.0799C45.7238 56.0799 48.2798 58.6359 48.2798 61.7599C48.2798 64.8839 45.7238 67.4399 42.5998 67.4399ZM42.5998 58.9199C41.0378 58.9199 39.7598 60.1979 39.7598 61.7599C39.7598 63.3219 41.0378 64.5999 42.5998 64.5999C44.1618 64.5999 45.4398 63.3219 45.4398 61.7599C45.4398 60.1979 44.1618 58.9199 42.5998 58.9199ZM8.51984 67.4399C5.39584 67.4399 2.83984 64.8839 2.83984 61.7599C2.83984 58.6359 5.39584 56.0799 8.51984 56.0799C11.6438 56.0799 14.1998 58.6359 14.1998 61.7599C14.1998 64.8839 11.6438 67.4399 8.51984 67.4399ZM8.51984 58.9199C6.95784 58.9199 5.67984 60.1979 5.67984 61.7599C5.67984 63.3219 6.95784 64.5999 8.51984 64.5999C10.0818 64.5999 11.3598 63.3219 11.3598 61.7599C11.3598 60.1979 10.0818 58.9199 8.51984 58.9199Z" fill="#00A859"/>
</svg>
