<svg width="64" height="53" viewBox="0 0 64 53" fill="none" xmlns="http://www.w3.org/2000/svg">
<path d="M6.66252 4.39751C6.66252 3.49644 7.02047 2.63227 7.65763 1.99511C8.29479 1.35795 9.15896 1 10.06 1H28.1801C28.6263 1 29.0681 1.08788 29.4803 1.25862C29.8925 1.42936 30.267 1.67962 30.5825 1.99511C30.898 2.3106 31.1483 2.68514 31.319 3.09734C31.4897 3.50955 31.5776 3.95135 31.5776 4.39751C31.5776 4.84368 31.4897 5.28548 31.319 5.69769C31.1483 6.10989 30.898 6.48443 30.5825 6.79992C30.267 7.11541 29.8925 7.36567 29.4803 7.53641C29.0681 7.70715 28.6263 7.79503 28.1801 7.79503H10.06C9.15896 7.79503 8.29479 7.43708 7.65763 6.79992C7.02047 6.16276 6.66252 5.29859 6.66252 4.39751ZM6.77577 15.8585C7.09407 15.4627 7.49705 15.1432 7.95508 14.9237C8.41311 14.7042 8.91453 14.5902 9.42244 14.5901H28.8154C29.3237 14.5899 29.8256 14.7037 30.284 14.9232C30.7425 15.1428 31.1458 15.4624 31.4644 15.8585L36.4904 22.1133C36.9753 22.717 37.2394 23.4681 37.239 24.2424V42.9027C37.239 43.8037 36.8811 44.6679 36.2439 45.3051C35.6067 45.9422 34.7426 46.3002 33.8415 46.3002H4.39751C3.49644 46.3002 2.63227 45.9422 1.99511 45.3051C1.35795 44.6679 1 43.8037 1 42.9027V24.2424C0.999635 23.4681 1.26374 22.717 1.74859 22.1133L6.77464 15.8596L6.77577 15.8585Z" stroke="#00A859" stroke-width="2" stroke-linejoin="round"/>
<path d="M19.1202 23.6501V37.2402M12.3252 30.4452H25.9153H12.3252Z" stroke="#00A859" stroke-width="2" stroke-linecap="round" stroke-linejoin="round"/>
<path fill-rule="evenodd" clip-rule="evenodd" d="M57.0938 35.6826C58.1199 34.2009 58.5155 32.3723 58.1934 30.599C57.8714 28.8257 56.8581 27.253 55.3764 26.2268C54.6428 25.7187 53.8163 25.3601 52.944 25.1714C52.0718 24.9827 51.1709 24.9677 50.2929 25.1272C48.5196 25.4492 46.9469 26.4625 45.9207 27.9442L38.1838 39.1177C37.6758 39.8513 37.3172 40.6778 37.1286 41.5499C36.9399 42.4221 36.9249 43.3229 37.0844 44.2009C37.2439 45.0789 37.5748 45.9168 38.0581 46.6669C38.5414 47.417 39.1678 48.0646 39.9014 48.5726C40.635 49.0807 41.4615 49.4393 42.3336 49.6279C43.2058 49.8165 44.1066 49.8315 44.9846 49.6721C45.8626 49.5126 46.7005 49.1817 47.4506 48.6984C48.2007 48.215 48.8483 47.5887 49.3564 46.8551L57.0938 35.6826ZM40.046 40.4077C39.7003 40.8965 39.4549 41.4489 39.324 42.0331C39.1931 42.6173 39.1793 43.2217 39.2834 43.8112C39.3876 44.4008 39.6075 44.9639 39.9306 45.4679C40.2536 45.972 40.6734 46.407 41.1656 46.7478C41.6578 47.0886 42.2127 47.3285 42.7981 47.4535C43.3836 47.5786 43.9881 47.5864 44.5766 47.4764C45.1651 47.3664 45.7259 47.1409 46.2267 46.8128C46.7275 46.4848 47.1583 46.0607 47.4942 45.5651L50.671 40.9767L43.2237 35.8187L40.046 40.4077ZM51.961 39.1145L44.5127 33.9571L47.7828 29.2342C48.1175 28.7358 48.548 28.3089 49.0491 27.9784C49.5503 27.6478 50.1121 27.4202 50.702 27.3087C51.2919 27.1972 51.8981 27.2041 52.4853 27.3289C53.0725 27.4537 53.6291 27.694 54.1226 28.0359C54.6161 28.3777 55.0368 28.8142 55.3602 29.32C55.6835 29.8258 55.9031 30.3909 56.0061 30.9823C56.1092 31.5738 56.0936 32.1798 55.9604 32.7652C55.8272 33.3505 55.579 33.9036 55.2301 34.3922L51.961 39.1145Z" fill="#00A859"/>
</svg>
